# Blender 4.4.3
# www.blender.org
mtllib 未命名.mtl
o base_link_l
v 0.001826 0.007985 -0.052031
v -0.016176 0.006928 -0.049562
v -0.000483 0.016801 -0.052104
v -0.017659 0.016857 -0.049057
v 0.002180 0.016934 -0.049121
v 0.016157 0.016861 -0.049568
v 0.017597 0.006928 -0.049080
v 0.003507 0.006900 -0.046932
v -0.002558 0.016900 -0.044377
v -0.003630 0.006900 -0.045708
v -0.050528 0.016900 -0.025079
v 0.001779 0.016900 -0.042872
v 0.000326 0.006900 -0.042988
v -0.028276 0.006981 -0.043614
v -0.032659 0.016794 -0.040653
v 0.028242 0.016887 -0.043632
v 0.028544 0.006920 -0.043425
v -0.036943 0.006923 -0.036738
v 0.036239 0.016878 -0.037283
v 0.038886 0.007913 -0.034765
v -0.008998 0.016900 -0.038975
v -0.000000 0.016900 -0.040148
v 0.008998 0.016900 -0.038975
v 0.000808 0.006947 -0.036439
v -0.007656 0.007068 -0.035735
v 0.029388 0.006900 -0.034348
v 0.007286 0.053819 -0.034312
v -0.002429 0.053239 -0.039938
v 0.002220 0.056572 -0.040034
v -0.000099 0.050175 -0.040079
v -0.011732 0.059893 -0.038243
v 0.009010 0.059993 -0.038846
v -0.012039 0.059652 -0.033805
v 0.014450 0.059400 -0.037299
v 0.016263 0.016900 -0.036544
v 0.007895 0.059704 -0.035160
v -0.041102 0.016867 -0.031807
v -0.033279 0.016809 -0.036221
v 0.041958 0.016898 -0.030809
v 0.045779 0.006921 -0.024613
v -0.016263 0.016900 -0.036544
v 0.030717 0.016863 -0.036155
v -0.019856 0.054913 -0.034767
v 0.019764 0.054469 -0.034878
v 0.022615 0.016926 -0.033013
v 0.027211 0.059893 -0.029344
v -0.030167 0.006900 -0.035300
v -0.020282 0.006960 -0.030347
v 0.020316 0.006962 -0.030328
v 0.035556 0.006900 -0.032513
v -0.008657 0.040692 -0.034057
v 0.008385 0.040765 -0.034287
v -0.022692 0.016917 -0.032948
v -0.029195 0.016900 -0.030951
v 0.000007 0.040750 -0.036622
v -0.008211 0.040700 -0.035565
v 0.008211 0.040700 -0.035565
v 0.007774 0.007997 -0.035700
v -0.008367 0.057583 -0.033996
v -0.014846 0.040700 -0.033344
v 0.014846 0.040700 -0.033344
v -0.031673 0.006900 -0.028790
v -0.042949 0.006900 -0.002260
v 0.040411 0.006896 -0.001271
v -0.026750 0.059891 -0.029790
v -0.026868 0.059669 -0.022520
v -0.035300 0.016900 -0.030167
v -0.018544 0.057439 -0.030177
v -0.037888 0.016900 -0.012280
v 0.024311 0.059351 -0.025211
v -0.020544 0.040708 -0.028549
v -0.020936 0.040700 -0.029899
v 0.019543 0.045774 -0.029118
v 0.020936 0.040700 -0.029899
v -0.028774 0.016900 -0.027786
v 0.028774 0.016900 -0.027786
v 0.032647 0.016900 -0.028883
v -0.047441 0.006960 -0.021635
v -0.048071 0.016792 -0.020193
v 0.047457 0.015854 -0.021646
v 0.032098 0.006900 -0.028886
v 0.033546 0.016900 -0.021787
v -0.040000 0.016900 0.000000
v 0.050711 0.006914 -0.012102
v -0.025811 0.006978 -0.025810
v -0.033545 0.016900 -0.021788
v 0.030350 0.006962 -0.020278
v -0.026256 0.040700 -0.025355
v 0.027438 0.040742 -0.022054
v 0.026256 0.040700 -0.025355
v 0.025809 0.007900 -0.025809
v -0.030463 0.006988 -0.020132
v -0.034191 0.054793 -0.021066
v 0.034852 0.054430 -0.020280
v -0.029681 0.040861 -0.019212
v -0.037505 0.059889 -0.013828
v -0.030611 0.040700 -0.019879
v 0.030611 0.040700 -0.019879
v -0.051278 0.016866 -0.008401
v -0.052576 0.006922 -0.000933
v 0.038657 0.059876 -0.010315
v 0.030945 0.059076 -0.016706
v -0.029934 0.054272 -0.018491
v -0.033842 0.040700 -0.013673
v 0.033842 0.040700 -0.013673
v 0.033773 0.040700 -0.008851
v -0.035808 0.059505 -0.005363
v 0.037488 0.016900 -0.013632
v -0.037087 0.016900 -0.014984
v -0.033638 0.054374 -0.009603
v 0.051291 0.015900 -0.008559
v -0.049357 0.016950 -0.002009
v -0.039265 0.016900 -0.007632
v -0.043428 0.016900 -0.001600
v -0.045258 0.016900 0.003882
v -0.037888 0.016900 0.012280
v 0.045187 0.016900 -0.003032
v 0.050008 0.016972 -0.000353
v -0.035806 0.007055 -0.007065
v -0.036921 0.006915 0.007926
v -0.041086 0.006904 0.031841
v 0.051670 0.006909 -0.000596
v 0.034160 0.059215 -0.007945
v -0.039263 0.059849 -0.007592
v 0.035799 0.007900 -0.007120
v -0.034865 0.040763 -0.003849
v -0.035829 0.040700 -0.006965
v 0.035829 0.040700 -0.006965
v 0.039265 0.016900 -0.007632
v -0.052027 0.007210 0.003508
v -0.051915 0.015971 0.005055
v 0.052019 0.016880 0.003563
v -0.040077 0.051049 -0.000629
v 0.040014 0.049708 -0.000033
v 0.040000 0.016900 0.000000
v 0.043077 0.016900 0.000406
v -0.039596 0.060016 0.000142
v 0.035820 0.007053 0.007009
v 0.042500 0.006900 0.001635
v -0.036500 0.040700 0.000000
v -0.036500 0.007900 0.000000
v 0.036500 0.040700 0.000000
v 0.035191 0.040776 0.002114
v 0.036500 0.007900 0.000000
v 0.039115 0.059884 0.007523
v 0.039915 0.056057 -0.002435
v -0.035180 0.053757 0.001649
v 0.035089 0.052570 0.002204
v 0.033576 0.059496 0.010321
v -0.047756 0.006900 0.003495
v -0.033865 0.040642 0.009560
v 0.039265 0.016900 0.007632
v -0.035829 0.040700 0.006965
v -0.035799 0.007900 0.007120
v 0.035829 0.040700 0.006965
v -0.039265 0.016900 0.007632
v 0.051237 0.006910 0.008707
v 0.035474 0.006930 0.010646
v 0.045187 0.016900 0.003032
v 0.037488 0.016900 0.013632
v 0.033545 0.016900 0.021788
v -0.048067 0.006927 0.020175
v 0.034846 0.006900 0.030631
v -0.039258 0.059866 0.007611
v -0.047409 0.016861 0.021686
v -0.033126 0.059480 0.011529
v 0.038415 0.059906 0.011089
v -0.033842 0.040700 0.013673
v 0.033842 0.040700 0.013673
v -0.037026 0.059886 0.014949
v -0.037418 0.059400 0.014140
v -0.030922 0.006900 0.029082
v 0.048074 0.016857 0.020181
v 0.047441 0.006932 0.021634
v 0.032438 0.040700 0.012813
v -0.030355 0.051997 0.017727
v 0.030561 0.051033 0.017352
v -0.026659 0.057393 0.022850
v 0.027689 0.059531 0.021714
v -0.037087 0.016900 0.014984
v -0.030611 0.040700 0.019879
v 0.030611 0.040700 0.019879
v 0.030348 0.006951 0.020281
v -0.023816 0.006944 0.028389
v -0.034130 0.055887 0.021200
v -0.033546 0.016900 0.021787
v 0.034071 0.049920 0.021120
v -0.040927 0.016868 0.032034
v -0.035925 0.016753 0.034205
v -0.028611 0.016904 0.027962
v 0.036356 0.016951 0.030995
v 0.030747 0.006900 0.030172
v 0.040853 0.006913 0.032118
v -0.026150 0.040699 0.023415
v 0.026272 0.040713 0.023245
v 0.033697 0.054996 0.021495
v 0.027243 0.059905 0.029326
v -0.026256 0.040700 0.025355
v 0.026256 0.040700 0.025355
v -0.026574 0.059699 0.029950
v -0.025809 0.007900 0.025809
v 0.025811 0.006978 0.025810
v 0.028774 0.016900 0.027786
v 0.030172 0.016900 0.030747
v -0.018675 0.053067 0.030033
v 0.019468 0.050829 0.029345
v 0.020724 0.058418 0.029392
v -0.020936 0.040700 0.029899
v -0.008966 0.059912 0.038850
v 0.041035 0.015900 0.031939
v 0.020936 0.040700 0.029899
v 0.020280 0.006946 0.030349
v 0.011140 0.059910 0.038360
v -0.018206 0.040700 0.029738
v 0.015900 0.040720 0.031401
v -0.009286 0.057601 0.033781
v 0.008974 0.049762 0.033870
v -0.022294 0.016951 0.033254
v -0.028731 0.016900 0.032907
v 0.022932 0.016914 0.032774
v -0.014846 0.040700 0.033344
v 0.014846 0.040700 0.033344
v -0.019404 0.052557 0.035007
v -0.013961 0.006949 0.033726
v 0.008776 0.006913 0.036496
v 0.001605 0.059623 0.035985
v -0.030841 0.006900 0.035210
v 0.031454 0.006900 0.035595
v 0.029388 0.006900 0.033368
v -0.008776 0.040692 0.034028
v 0.034796 0.016679 0.035438
v 0.029388 0.016900 0.033368
v -0.029591 0.006919 0.043274
v -0.031395 0.016868 0.041620
v 0.035303 0.016885 0.038142
v 0.031425 0.006930 0.041607
v -0.008211 0.040700 0.035565
v 0.019694 0.055006 0.032195
v 0.017819 0.050323 0.035874
v 0.016269 0.016900 0.036542
v 0.013968 0.007900 0.033722
v 0.008211 0.040700 0.035565
v -0.016263 0.016900 0.036544
v -0.020642 0.016894 0.047691
v 0.030229 0.006900 0.034825
v 0.030229 0.016900 0.034825
v 0.016263 0.016900 0.036544
v -0.007652 0.007900 0.035637
v 0.007022 0.007887 0.035819
v 0.002740 0.040700 0.034761
v -0.000252 0.050831 0.035246
v 0.016210 0.059400 0.036422
v -0.000007 0.040750 0.036622
v 0.012929 0.016895 0.050339
v -0.000663 0.056971 0.040029
v 0.000126 0.006942 0.036513
v -0.013549 0.059400 0.037635
v -0.008998 0.016900 0.038975
v 0.009058 0.017028 0.038962
v 0.000299 0.050002 0.040192
v -0.002558 0.006900 0.044377
v 0.003329 0.006900 0.047459
v 0.005063 0.006904 0.051769
v 0.001013 0.006900 0.043145
v -0.003085 0.016900 0.044069
v 0.003447 0.016900 0.044336
v 0.025497 0.015897 0.045504
v -0.000004 0.016935 0.040138
v 0.020888 0.007900 0.047620
v -0.000606 0.007044 0.051934
v -0.000660 0.016900 0.049626
v 0.004385 0.016753 0.051783
v -0.012910 0.007061 0.050348
v -0.007828 0.016415 0.051559
v 0.012765 0.007900 0.050409
v 0.003050 0.050900 -0.034867
v -0.003050 -0.002100 -0.034867
v -0.003050 0.050900 -0.034867
v -0.009059 -0.002100 -0.033807
v -0.009075 0.050900 -0.033803
v -0.000360 0.050900 -0.004580
v 0.009059 0.050900 -0.033807
v 0.003050 -0.002100 -0.034867
v 0.003248 -0.002100 -0.033844
v -0.002792 -0.002100 -0.033885
v 0.009059 -0.002100 -0.033807
v 0.009186 -0.002100 -0.032735
v -0.013862 -0.014450 -0.031418
v -0.012177 -0.002100 -0.031874
v 0.000771 -0.014450 -0.034112
v -0.002001 -0.014451 -0.025823
v 0.015875 -0.014450 -0.030519
v -0.014792 -0.002100 -0.031721
v -0.014792 0.050900 -0.031721
v 0.014792 0.050900 -0.031721
v 0.014792 -0.002100 -0.031721
v 0.015753 -0.002100 -0.030236
v -0.020075 -0.002100 -0.028670
v -0.020075 0.050900 -0.028670
v -0.002935 0.050900 -0.003411
v 0.020075 0.050900 -0.028670
v 0.002672 0.050900 -0.003621
v 0.020075 -0.002100 -0.028670
v -0.019642 -0.002100 -0.027752
v 0.007121 -0.002100 -0.011723
v 0.007222 -0.014450 -0.011946
v -0.024749 -0.002100 -0.024749
v -0.024749 0.050900 -0.024749
v 0.024749 0.050900 -0.024749
v 0.024749 -0.002100 -0.024749
v 0.002672 -0.002100 -0.003621
v -0.026613 -0.014450 -0.021477
v -0.026699 -0.002100 -0.021247
v -0.028670 -0.002100 -0.020075
v -0.028670 0.050900 -0.020075
v 0.028670 0.050900 -0.020075
v 0.028670 -0.002100 -0.020075
v -0.003303 -0.014450 -0.021237
v -0.013234 -0.014450 -0.004515
v -0.031022 -0.014450 -0.013154
v -0.000772 -0.017450 -0.023295
v -0.007634 -0.014450 -0.010998
v -0.001222 -0.014450 -0.013332
v -0.031721 -0.002100 -0.014792
v -0.031721 0.050900 -0.014792
v -0.004125 0.050900 -0.001800
v 0.031721 0.050900 -0.014792
v 0.003979 0.050900 -0.002103
v 0.031721 -0.002100 -0.014792
v 0.003979 -0.002100 -0.002103
v -0.031029 -0.002100 -0.013900
v -0.033807 -0.002100 -0.009059
v -0.033807 0.050900 -0.009059
v 0.033807 0.050900 -0.009059
v 0.033807 -0.002100 -0.009059
v -0.031022 -0.002100 -0.013154
v -0.000847 -0.002101 -0.013784
v -0.034867 -0.002100 -0.003050
v -0.013573 -0.002100 -0.004673
v 0.000022 -0.002100 -0.004593
v -0.002935 -0.002100 -0.003411
v -0.009844 -0.002099 -0.009607
v -0.034867 -0.002100 0.003050
v -0.034867 0.050900 -0.003050
v 0.034867 0.050900 -0.003050
v 0.004545 0.050900 0.000668
v 0.034867 -0.002100 -0.003050
v 0.004473 -0.002100 0.001044
v -0.004125 -0.002100 -0.001800
v 0.020075 -0.002100 0.028670
v 0.014792 -0.002100 0.031721
v 0.009059 -0.002100 0.033807
v 0.003050 -0.002100 0.034867
v -0.004483 -0.002100 0.001001
v -0.002672 -0.002100 0.003621
v -0.028670 -0.002100 0.020075
v -0.031721 -0.002100 0.014792
v -0.020075 -0.002100 0.028670
v -0.024749 -0.002100 0.024749
v -0.033807 -0.002100 0.009059
v -0.003050 -0.002100 0.034867
v -0.009059 -0.002100 0.033807
v -0.014792 -0.002100 0.031721
v -0.034867 0.050900 0.003050
v -0.004385 0.050900 0.001370
v 0.034867 0.050900 0.003050
v 0.034867 -0.002100 0.003050
v -0.033807 0.050900 0.009059
v 0.033807 0.050900 0.009059
v 0.002935 0.050900 0.003411
v 0.028670 0.050900 0.020075
v 0.031721 0.050900 0.014792
v 0.002935 -0.002100 0.003411
v 0.028670 -0.002100 0.020075
v 0.031721 -0.002100 0.014792
v 0.033807 -0.002100 0.009059
v -0.031721 0.050900 0.014792
v -0.028670 0.050900 0.020075
v -0.002672 0.050900 0.003621
v 0.020075 0.050900 0.028670
v 0.024749 0.050900 0.024749
v 0.014792 0.050900 0.031721
v 0.000360 0.050900 0.004580
v -0.000022 -0.002100 0.004593
v 0.024749 -0.002100 0.024749
v -0.020075 0.050900 0.028670
v -0.014792 0.050900 0.031721
v -0.024749 0.050900 0.024749
v 0.009073 0.050900 0.033804
v -0.003050 0.050900 0.034867
v 0.003050 0.050900 0.034867
v -0.009059 0.050900 0.033807
v 0.016448 0.057000 -0.031441
v 0.001992 0.050901 -0.035669
v -0.001072 0.055154 -0.035776
v -0.017928 0.056967 -0.030420
v 0.001754 0.057000 -0.004021
v -0.001165 0.057000 -0.004347
v 0.017547 0.050929 -0.030362
v -0.030289 0.056997 -0.018296
v -0.022906 0.050900 -0.026032
v 0.030424 0.050900 -0.019076
v 0.030400 0.056966 -0.018151
v -0.003530 0.057000 -0.002605
v -0.030428 0.050914 -0.017343
v 0.004238 0.057000 -0.001135
v -0.035251 0.050901 -0.003626
v 0.035847 0.050902 0.000830
v 0.035604 0.054425 0.000385
v -0.035575 0.056991 0.000349
v -0.003943 0.057000 0.003050
v 0.029740 0.057000 0.019506
v 0.002939 0.057000 0.003750
v -0.031792 0.050902 0.016284
v 0.017410 0.056963 0.030834
v 0.030380 0.050929 0.017494
v 0.022130 0.050900 0.027383
v -0.019573 0.056999 0.030116
v -0.017147 0.050915 0.030831
v -0.020658 0.050901 0.028100
v -0.000949 0.057000 0.035534
v -0.000912 0.050906 0.035488
v -0.029965 0.054951 0.018404
v -0.013882 0.053531 0.023631
v -0.006330 0.072900 -0.034832
v 0.007956 0.072902 -0.034094
v 0.000226 0.067623 -0.034989
v -0.003137 0.072900 -0.034859
v -0.000039 0.057000 -0.035250
v 0.007694 0.072893 -0.029575
v 0.010415 0.057000 -0.033460
v -0.008932 0.072900 -0.033841
v -0.008806 0.057000 -0.033874
v -0.009185 0.057000 -0.033773
v -0.014713 0.057000 -0.031758
v -0.017592 0.072193 -0.030574
v 0.038630 0.072900 -0.014429
v 0.018054 0.072898 -0.030087
v 0.017283 0.067661 -0.030398
v 0.022334 0.057000 -0.027027
v -0.024525 0.057000 -0.025150
v -0.003476 0.073897 -0.029383
v 0.016668 0.067460 -0.026882
v -0.025275 0.072901 -0.024249
v -0.021894 0.072870 -0.021451
v 0.021633 0.072864 -0.022137
v 0.022208 0.069150 -0.022098
v 0.025409 0.072900 -0.023898
v 0.028796 0.057000 -0.020111
v 0.025820 0.073894 -0.013666
v -0.005197 0.073900 0.000573
v 0.001676 0.073900 -0.004692
v -0.028273 0.073871 -0.008271
v 0.032691 0.072900 -0.012512
v 0.030375 0.067403 -0.017522
v -0.030250 0.066976 -0.017589
v -0.031065 0.072900 -0.016122
v -0.031065 0.057000 -0.016122
v 0.032949 0.057000 -0.011807
v -0.035569 0.072900 -0.005365
v -0.033287 0.057000 -0.010816
v -0.030365 0.072353 -0.008042
v 0.030261 0.072900 -0.008031
v 0.034438 0.072900 -0.006248
v 0.034837 0.057000 -0.004199
v -0.033953 0.072900 -0.007988
v -0.034994 0.057000 -0.003267
v -0.028220 0.073898 0.006015
v 0.035063 0.067313 -0.000104
v -0.035064 0.067309 0.000102
v 0.004311 0.073900 0.000816
v 0.034450 0.072905 0.006160
v 0.034609 0.057000 0.005216
v 0.025259 0.073890 0.013650
v -0.033440 0.057000 0.010937
v 0.029727 0.072900 0.007969
v -0.033834 0.072902 0.009118
v -0.030095 0.072900 0.008134
v 0.001506 0.073900 0.004516
v 0.010156 0.073900 0.027031
v 0.032694 0.057000 0.012588
v 0.024525 0.057000 0.025150
v -0.019957 0.073891 0.021025
v -0.022327 0.057000 0.027036
v -0.027364 0.057000 0.021822
v -0.010416 0.057000 0.033460
v 0.010457 0.057000 0.033479
v 0.000039 0.057000 0.035250
v 0.030765 0.072900 0.016839
v 0.030086 0.067228 0.008323
v -0.027974 0.072900 0.021165
v -0.030308 0.066719 0.017528
v 0.031066 0.072900 0.016122
v -0.022060 0.072788 0.022218
v -0.038630 0.072900 0.014429
v 0.024321 0.072901 0.025145
v 0.030250 0.066976 0.017589
v 0.009504 0.072903 0.033761
v -0.007897 0.072900 0.029061
v -0.007956 0.072902 0.034094
v -0.018054 0.072898 0.030087
v 0.017534 0.067535 0.030272
v -0.017494 0.067400 0.030337
v 0.000054 0.067283 0.034991
vn -0.1332 -0.0431 -0.9901
vn -0.1745 0.0240 -0.9844
vn 0.7290 0.1855 -0.6589
vn -0.0288 0.3101 -0.9503
vn 0.1824 -0.0218 -0.9830
vn -0.0284 -0.9796 -0.1991
vn 0.0010 0.9999 -0.0126
vn 0.0395 -0.9899 -0.1358
vn -0.9517 -0.0602 0.3009
vn 0.7256 0.1955 0.6597
vn -0.0016 1.0000 -0.0040
vn 0.0054 1.0000 0.0058
vn 0.0023 -1.0000 0.0018
vn 0.9562 -0.1369 0.2585
vn -0.4411 -0.0203 -0.8972
vn -0.4884 0.0448 -0.8714
vn 0.4407 0.0198 -0.8974
vn 0.4590 -0.0046 -0.8884
vn -0.0222 0.9992 -0.0323
vn 0.0007 -1.0000 -0.0027
vn -0.9874 -0.1446 -0.0642
vn -0.7728 0.1195 -0.6234
vn -0.6208 -0.0411 -0.7829
vn 0.6218 0.0026 -0.7832
vn 0.6432 -0.0250 -0.7653
vn 0.5658 0.0489 -0.8231
vn 0.3276 -0.0366 -0.9441
vn -0.0000 1.0000 -0.0000
vn 0.0003 1.0000 -0.0051
vn -0.0031 -1.0000 0.0028
vn -0.0000 -1.0000 -0.0000
vn 0.0005 1.0000 -0.0009
vn -0.0045 -0.9999 -0.0142
vn -0.0052 -1.0000 0.0075
vn -0.0133 -0.9998 0.0114
vn -0.0022 -1.0000 0.0073
vn 0.0007 -1.0000 -0.0023
vn 0.4238 -0.6106 -0.6690
vn -0.1293 0.0017 -0.9916
vn 0.1293 0.0024 -0.9916
vn 0.0630 -0.0159 -0.9979
vn -0.0767 -0.0126 -0.9970
vn -0.1004 0.1115 -0.9887
vn -0.0287 0.3784 -0.9252
vn 0.1710 0.0029 -0.9853
vn -0.1754 0.0056 -0.9845
vn 0.4472 0.3773 -0.8110
vn -0.6679 0.2372 0.7054
vn -0.0032 0.9985 0.0541
vn -0.3173 -0.0040 -0.9483
vn 0.2730 -0.0054 -0.9620
vn 0.3173 0.0028 -0.9483
vn 0.0792 0.9916 0.1019
vn -0.7227 0.0399 -0.6900
vn 0.0059 1.0000 -0.0025
vn -0.0034 -1.0000 0.0029
vn 0.7490 0.0353 -0.6617
vn 0.3597 -0.8729 -0.3295
vn 0.0057 -0.9998 0.0169
vn 0.3173 0.0040 0.9483
vn 0.0004 1.0000 -0.0012
vn 0.0025 1.0000 0.0024
vn -0.0020 1.0000 0.0039
vn -0.3962 0.0055 -0.9182
vn 0.4031 -0.0148 -0.9150
vn 0.4859 0.0052 -0.8740
vn 0.2651 0.6398 0.7213
vn 0.2437 0.5081 -0.8261
vn -0.2074 0.0257 0.9779
vn -0.0022 -1.0000 -0.0055
vn 0.0027 -1.0000 0.0068
vn 0.0190 -0.9995 0.0245
vn -0.0024 -0.9999 0.0100
vn -0.8233 -0.2067 0.5287
vn 0.9847 -0.1480 -0.0920
vn -0.1101 0.1529 0.9821
vn 0.0135 0.0031 0.9999
vn -0.4881 -0.0053 -0.8728
vn -0.0091 0.9997 -0.0211
vn -0.0056 0.9999 -0.0129
vn 0.0029 0.9999 -0.0125
vn 0.0830 0.0074 0.9965
vn 0.0056 -1.0000 -0.0036
vn 0.0042 -1.0000 -0.0084
vn 0.1276 -0.0029 0.9918
vn -0.0129 -0.9985 0.0526
vn -0.1059 0.0029 0.9944
vn -0.1278 -0.0024 0.9918
vn 0.2175 0.3004 0.9287
vn -0.1264 0.9912 0.0397
vn -0.0020 -1.0000 -0.0058
vn 0.3173 0.0004 0.9483
vn -0.0178 -0.9984 0.0533
vn -0.3173 0.0003 0.9483
vn -0.0026 -1.0000 -0.0011
vn 0.0035 1.0000 -0.0004
vn 0.0010 -1.0000 -0.0009
vn 0.0720 -0.0048 0.9974
vn -0.7749 -0.1873 0.6037
vn -0.4817 0.1886 -0.8558
vn -0.1812 0.7966 0.5766
vn 0.0172 0.9994 0.0308
vn 0.0448 0.9974 0.0573
vn 0.8887 -0.3451 0.3019
vn -0.0014 0.9999 -0.0154
vn 0.1811 0.4140 0.8921
vn 0.3052 0.4650 0.8310
vn 0.3514 -0.0094 0.9362
vn -0.0055 1.0000 -0.0008
vn 0.3923 0.0185 0.9197
vn -0.3924 0.0186 0.9196
vn -0.0405 0.9940 0.1020
vn -0.9567 0.1892 -0.2213
vn 0.0055 -1.0000 0.0013
vn -0.0013 -1.0000 0.0002
vn 0.0029 -1.0000 0.0050
vn 0.4924 -0.0020 0.8704
vn -0.1247 -0.5644 0.8161
vn -0.4755 -0.2599 0.8404
vn -0.4924 -0.0020 0.8704
vn 0.9832 0.0828 0.1626
vn -0.5832 0.0046 -0.8123
vn -0.6471 -0.0051 -0.7624
vn -0.0025 1.0000 0.0003
vn 0.6470 -0.0041 -0.7624
vn 0.5940 0.0051 -0.8045
vn 0.0053 1.0000 -0.0065
vn 0.0010 1.0000 0.0037
vn 0.4201 0.0380 0.9067
vn -0.8197 -0.0603 -0.5696
vn -0.8573 0.0205 -0.5144
vn 0.8525 -0.0630 -0.5189
vn 0.8283 0.0302 -0.5594
vn -0.5076 0.1741 0.8438
vn 0.8784 -0.1962 -0.4358
vn 0.9652 -0.0529 -0.2560
vn -0.0056 -1.0000 0.0028
vn -0.0090 -0.5521 -0.8337
vn -0.4434 -0.1005 0.8907
vn -0.4080 -0.0326 0.9124
vn 0.8131 0.2209 -0.5385
vn -0.9125 -0.1239 -0.3899
vn 0.0046 1.0000 -0.0006
vn -0.7232 0.0399 -0.6895
vn -0.0001 -1.0000 -0.0001
vn -0.0050 1.0000 -0.0009
vn -0.0016 1.0000 -0.0017
vn -0.0060 -1.0000 -0.0017
vn 0.0009 -1.0000 -0.0009
vn 0.0070 -0.9999 0.0123
vn 0.5469 -0.4285 0.7193
vn -0.0060 -1.0000 0.0060
vn 0.0040 -1.0000 0.0047
vn 0.6494 -0.0017 0.7604
vn 0.6344 0.0020 0.7730
vn -0.7347 -0.2956 0.6106
vn -0.0157 -0.9997 0.0184
vn -0.6354 0.0019 0.7722
vn -0.6494 -0.0017 0.7604
vn -0.0118 0.9999 -0.0006
vn -0.1252 -0.1797 -0.9757
vn 0.0087 -0.9999 0.0090
vn -0.0147 -0.9999 0.0043
vn -0.7826 -0.0015 -0.6225
vn -0.7625 0.0057 -0.6470
vn 0.7826 -0.0022 -0.6225
vn 0.7659 0.0045 -0.6429
vn 0.6757 -0.0090 0.7371
vn -0.6610 0.0162 0.7503
vn 0.7148 0.0161 0.6992
vn 0.0233 -0.9990 0.0392
vn -0.5686 0.5953 0.5677
vn -0.8038 0.2464 -0.5415
vn -0.7728 0.0017 0.6347
vn 0.0462 0.9984 0.0313
vn 0.1092 -0.9902 0.0868
vn 0.7826 -0.0012 0.6225
vn 0.7735 0.0017 0.6338
vn -0.0292 -0.9993 0.0232
vn -0.7826 -0.0013 0.6225
vn 0.9290 -0.0529 -0.3663
vn 0.0013 1.0000 -0.0059
vn -0.0026 -1.0000 -0.0025
vn 0.8105 0.3252 -0.4872
vn -0.2024 0.9716 0.1226
vn -0.0663 0.9943 0.0839
vn 0.8062 -0.0166 0.5914
vn -0.7886 -0.0283 0.6142
vn 0.1248 -0.9901 0.0650
vn 0.8870 0.0004 0.4617
vn -0.0165 -0.9999 0.0047
vn -0.8838 0.0013 0.4678
vn -0.8870 -0.0030 0.4617
vn 0.8763 -0.1582 0.4551
vn 0.9002 -0.0139 -0.4352
vn -0.8870 -0.0063 -0.4618
vn -0.9086 0.0024 -0.4177
vn 0.9209 0.0730 0.3829
vn -0.9006 0.0462 0.4323
vn -0.9702 -0.0269 -0.2407
vn -0.9627 -0.0706 -0.2614
vn 0.9585 0.0489 -0.2810
vn 0.3550 0.9287 -0.1073
vn 0.0088 0.9998 -0.0159
vn -0.0099 -0.9997 0.0212
vn 0.0001 -1.0000 -0.0000
vn 0.0001 1.0000 -0.0001
vn -0.0159 0.9999 0.0018
vn 0.2907 0.9535 -0.0791
vn 0.0162 -0.9998 -0.0081
vn 0.0304 -0.9995 0.0129
vn 0.0026 -1.0000 -0.0000
vn 0.0093 -0.9999 0.0089
vn 0.0012 -1.0000 -0.0006
vn 0.9230 -0.0033 0.3847
vn -0.9388 0.0028 0.3445
vn 0.0495 0.9981 0.0353
vn -0.9588 -0.0017 -0.2840
vn 0.9338 0.0022 -0.3578
vn -0.9624 -0.0012 -0.2715
vn 0.9255 0.0203 0.3783
vn 0.7762 -0.0787 -0.6256
vn 0.0804 0.9963 0.0291
vn 0.0547 -0.9984 0.0121
vn 0.0332 -0.9994 0.0098
vn 0.9588 -0.0002 0.2840
vn -0.9588 -0.0005 0.2840
vn -0.9588 0.0003 -0.2840
vn 0.9588 -0.0042 -0.2840
vn -0.1290 0.9911 0.0316
vn 0.9462 0.0498 0.3196
vn -0.9724 0.2072 0.1069
vn -0.9987 0.0208 -0.0459
vn 0.9975 -0.0421 -0.0565
vn 0.2232 0.9704 -0.0919
vn 0.9965 -0.0002 -0.0831
vn -0.2230 0.9733 0.0541
vn -0.9954 -0.0040 -0.0958
vn -0.9933 0.0001 -0.1158
vn 0.9922 0.0062 -0.1247
vn 0.9954 -0.0005 -0.0958
vn 0.1097 0.9938 -0.0168
vn -0.1404 -0.9883 -0.0590
vn -0.0137 -0.9998 0.0114
vn 0.0496 -0.9988 0.0048
vn 0.9954 -0.0000 0.0958
vn 0.9952 0.0004 0.0978
vn -0.0501 -0.9987 0.0048
vn -0.0072 -0.9999 0.0079
vn -0.9954 0.0005 0.0958
vn 0.9805 0.1819 0.0746
vn -0.9952 -0.0000 0.0980
vn -0.5253 0.8493 0.0517
vn -0.9917 0.0145 0.1281
vn 0.9636 0.2662 -0.0248
vn -0.1437 0.9896 0.0032
vn 0.9486 0.2810 0.1454
vn 0.9905 -0.0327 0.1339
vn -0.9963 -0.0093 0.0851
vn -0.9830 -0.1811 -0.0287
vn -0.0692 -0.0690 0.9952
vn 0.1364 0.0623 0.9887
vn -0.0589 0.2003 0.9780
vn -0.4821 -0.1006 0.8703
vn 0.7294 -0.4404 -0.5235
vn 0.8521 0.0152 0.5231
vn 0.1937 -0.8704 -0.4527
vn -0.5813 0.5373 0.6111
vn 0.6480 -0.2838 -0.7068
vn -0.0789 0.9967 -0.0178
vn -0.8143 -0.5800 -0.0225
vn 0.5932 0.6102 0.5252
vn -0.9482 -0.0246 -0.3166
vn 0.9957 0.0553 -0.0738
vn 0.0146 -0.9998 -0.0101
vn 0.9954 -0.0003 0.0958
vn -0.0338 -0.9994 0.0033
vn 0.9954 0.0005 -0.0958
vn 0.9952 -0.0000 -0.0980
vn -0.0685 -0.9976 -0.0066
vn -0.9954 -0.0000 -0.0958
vn 0.8068 -0.1797 -0.5629
vn -0.9954 -0.0005 0.0958
vn 0.6328 -0.7718 -0.0623
vn -0.9953 0.0001 -0.0965
vn 0.9974 -0.0543 0.0465
vn -0.0720 -0.9947 0.0735
vn -0.0541 -0.9978 -0.0388
vn -0.7501 0.2115 -0.6265
vn 0.0001 -1.0000 0.0001
vn 0.7737 -0.1211 -0.6219
vn 0.9971 0.0399 0.0649
vn -0.5354 -0.3060 -0.7872
vn -0.5724 -0.0749 -0.8165
vn 0.0011 0.9997 0.0229
vn -0.0724 -0.9974 0.0003
vn -0.0065 -1.0000 -0.0017
vn 0.0009 -1.0000 0.0002
vn -0.2321 0.1955 -0.9529
vn -0.8197 -0.5722 0.0256
vn -0.0022 1.0000 0.0019
vn -0.0397 0.6842 -0.7282
vn -0.9951 0.0002 0.0987
vn 0.9936 0.0038 0.1131
vn 0.0077 1.0000 0.0031
vn 0.0028 1.0000 0.0017
vn -0.0060 -1.0000 0.0015
vn 0.0010 -1.0000 0.0001
vn 0.9810 -0.0183 -0.1933
vn 0.9842 -0.0832 -0.1564
vn -0.9841 -0.0072 -0.1773
vn 0.1107 0.9937 -0.0161
vn -0.0810 0.9965 -0.0220
vn -0.0485 -0.9987 0.0144
vn -0.9588 -0.0001 -0.2840
vn 0.9588 -0.0005 -0.2840
vn -0.0366 -0.9993 -0.0108
vn -0.0878 0.9959 0.0240
vn 0.9588 0.0041 0.2840
vn 0.9812 -0.0098 0.1925
vn -0.9625 0.0003 0.2713
vn -0.9198 0.2760 0.2790
vn -0.9588 -0.0018 0.2840
vn -0.0005 -1.0000 -0.0006
vn -0.2902 0.9566 0.0275
vn -0.9726 -0.0284 0.2306
vn -0.9652 0.0244 0.2602
vn 0.9721 0.0428 0.2308
vn 0.9593 -0.0200 0.2817
vn -0.9682 0.0256 -0.2489
vn 0.0038 -1.0000 -0.0061
vn 0.9156 0.0061 -0.4020
vn -0.9208 0.0040 -0.3901
vn 0.8553 -0.1038 -0.5077
vn -0.8867 -0.0645 -0.4579
vn 0.0967 0.9953 -0.0080
vn -0.9588 0.0016 0.2840
vn -0.8981 -0.0093 0.4398
vn -0.0274 -0.9995 0.0143
vn 0.6748 -0.1831 0.7149
vn -0.9946 -0.0395 -0.0960
vn 0.8870 -0.0023 -0.4617
vn -0.8870 -0.0015 -0.4617
vn -0.8828 0.0013 -0.4697
vn 0.0060 -1.0000 -0.0024
vn -0.9069 0.0016 0.4212
vn -0.8870 -0.0063 0.4618
vn 0.9162 0.0039 0.4007
vn 0.9003 -0.0055 0.4353
vn -0.0030 1.0000 0.0012
vn 0.0209 0.9998 0.0049
vn -0.0183 0.9998 0.0084
vn -0.0126 0.9999 0.0095
vn 0.0032 1.0000 0.0021
vn 0.0023 1.0000 -0.0063
vn -0.0073 -1.0000 -0.0017
vn 0.0006 -1.0000 -0.0051
vn 0.0048 -1.0000 0.0031
vn 0.0022 -1.0000 -0.0005
vn -0.3761 0.7330 0.5668
vn 0.8708 0.0798 -0.4852
vn -0.0061 -1.0000 0.0075
vn -0.8589 0.0669 -0.5078
vn -0.0036 -1.0000 -0.0009
vn 0.7623 -0.6460 0.0408
vn -0.0770 0.9959 -0.0471
vn 0.8086 0.0047 -0.5884
vn -0.8211 0.0154 -0.5705
vn -0.0003 -1.0000 0.0002
vn 0.8416 0.0335 -0.5390
vn 0.7826 0.0006 -0.6225
vn -0.0076 -1.0000 -0.0060
vn -0.7826 -0.0013 -0.6225
vn -0.7831 0.2915 0.5493
vn 0.0713 0.9968 -0.0372
vn -0.7917 -0.0023 0.6109
vn -0.7730 0.0016 -0.6344
vn 0.1607 -0.7712 0.6159
vn -0.0116 -0.9999 -0.0047
vn -0.0997 0.9935 -0.0546
vn 0.8194 0.2765 0.5020
vn 0.6081 0.7091 -0.3569
vn 0.7826 0.0001 0.6225
vn -0.7812 -0.0023 0.6243
vn -0.0082 1.0000 -0.0031
vn 0.7715 0.0047 0.6363
vn 0.6674 -0.0049 -0.7447
vn -0.6750 -0.0092 -0.7377
vn -0.7438 0.1272 -0.6562
vn -0.7581 0.0058 0.6521
vn -0.0002 -1.0000 0.0003
vn 0.4888 -0.7645 -0.4202
vn -0.8579 -0.0213 0.5133
vn -0.8474 0.0033 0.5309
vn 0.8571 0.0207 0.5148
vn 0.1795 0.9660 0.1861
vn 0.8467 -0.0066 0.5320
vn -0.0074 0.9999 -0.0093
vn 0.6494 -0.0017 -0.7604
vn -0.0051 -1.0000 -0.0060
vn -0.6494 -0.0017 -0.7604
vn -0.6344 0.0020 -0.7730
vn -0.0046 -0.9999 -0.0126
vn -0.0281 0.9983 -0.0507
vn 0.6222 0.0423 -0.7817
vn -0.0000 -1.0000 0.0001
vn -0.6171 0.0582 -0.7848
vn -0.0060 -1.0000 -0.0067
vn 0.4956 -0.3813 -0.7804
vn -0.4011 0.0721 -0.9132
vn -0.6421 -0.0050 0.7666
vn -0.0079 1.0000 0.0006
vn 0.6494 -0.0041 0.7605
vn 0.0017 1.0000 -0.0008
vn 0.2504 0.8749 -0.4146
vn 0.6486 -0.0650 0.7584
vn -0.9746 0.2225 -0.0234
vn -0.0395 -0.0596 0.9974
vn -0.1111 -0.0193 0.9936
vn 0.7836 -0.0391 -0.6200
vn 0.4924 -0.0031 -0.8704
vn -0.0085 -0.9999 -0.0150
vn -0.4924 -0.0020 -0.8704
vn 0.6325 0.7556 0.1702
vn 0.4762 0.0025 -0.8794
vn -0.4713 0.0024 -0.8820
vn -0.0859 0.9086 -0.4087
vn 0.3555 0.0358 -0.9340
vn -0.3913 -0.0488 -0.9190
vn 0.0026 -1.0000 -0.0039
vn 0.0063 -1.0000 -0.0001
vn -0.0008 -1.0000 -0.0070
vn -0.0044 -1.0000 -0.0019
vn -0.0073 -1.0000 0.0067
vn 0.4141 -0.0008 -0.9102
vn -0.0014 -1.0000 0.0013
vn -0.9354 0.1521 -0.3191
vn 0.2457 -0.3461 0.9055
vn -0.2159 -0.4316 0.8758
vn -0.3281 -0.0428 -0.9437
vn 0.9198 0.0304 0.3913
vn 0.9580 -0.0000 0.2868
vn 0.0022 1.0000 0.0006
vn -0.7052 -0.0024 0.7090
vn -0.7091 -0.0114 0.7050
vn 0.7343 -0.0014 0.6788
vn 0.2113 0.9766 0.0402
vn 0.7090 -0.0310 0.7045
vn -0.0019 -1.0000 0.0058
vn 0.9527 -0.2049 0.2247
vn -0.9775 -0.0801 0.1950
vn -0.5724 0.0061 0.8200
vn 0.1321 -0.6446 -0.7530
vn 0.4861 0.1140 0.8664
vn 0.3308 0.0425 0.9428
vn -0.1558 -0.9477 -0.2787
vn 0.4922 -0.0054 0.8705
vn 0.0016 1.0000 0.0066
vn 0.9598 0.1235 0.2519
vn 0.4717 -0.0025 0.8817
vn 0.3173 -0.0024 -0.9483
vn -0.0042 -0.9999 -0.0127
vn -0.3173 -0.0024 -0.9483
vn -0.0097 0.9994 0.0332
vn -0.0001 1.0000 0.0004
vn 0.8660 -0.0000 -0.5000
vn -0.9778 0.2093 0.0128
vn -0.4722 -0.1234 -0.8728
vn 0.2896 0.0028 -0.9571
vn -0.2891 0.0031 -0.9573
vn -0.1854 -0.7635 -0.6186
vn 0.1425 -0.1935 -0.9707
vn 0.0405 0.9984 -0.0403
vn -0.2478 0.9684 -0.0275
vn -0.1340 0.1110 -0.9847
vn -0.1471 0.0039 -0.9891
vn -0.3576 -0.0070 -0.9339
vn -0.0196 0.9989 -0.0422
vn 0.0057 -1.0000 0.0030
vn -0.4459 0.1741 0.8780
vn 0.0634 0.0663 -0.9958
vn 0.1529 -0.0099 -0.9882
vn -0.0009 -0.9997 0.0254
vn 0.5320 -0.0000 -0.8467
vn 0.1300 -0.0602 -0.9897
vn -0.0000 1.0000 0.0003
vn 0.0420 0.9980 0.0471
vn -0.0032 -0.9998 0.0220
vn 0.2481 -0.8681 -0.4299
vn 0.5169 0.5473 -0.6582
vn -0.9052 0.2217 -0.3625
vn 0.1278 -0.0000 -0.9918
vn -0.1276 -0.0031 -0.9918
vn -0.1707 -0.1868 -0.9675
vn -0.0038 1.0000 0.0025
vn -0.0210 0.9998 -0.0028
vn -0.0373 0.9969 -0.0692
vn 0.3118 0.0642 -0.9480
vn -0.3452 0.1031 -0.9329
vn 0.1124 0.0036 -0.9937
vn 0.1607 0.5634 -0.8104
vn 0.3383 0.0031 0.9410
vn -0.1006 0.0028 -0.9949
vn -0.0036 -0.5750 -0.8182
vn -0.3968 -0.0130 0.9178
vn 0.2352 0.1665 -0.9576
vn 0.3169 0.0031 0.9485
vn 0.3573 0.0031 0.9340
vn -0.0026 0.9940 -0.1098
vn -0.4788 0.0080 0.8779
vn -0.2553 -0.0085 0.9668
vn -0.3173 0.0030 0.9483
vn 0.3181 -0.0021 0.9481
vn 0.0195 0.9998 0.0051
vn -0.9461 -0.2362 0.2218
vn 0.9639 0.2584 -0.0641
vn 0.7278 0.6850 0.0337
vn 0.0023 -1.0000 -0.0071
vn -0.0012 -1.0000 0.0025
vn -0.0008 -1.0000 0.0025
vn 0.0005 -1.0000 -0.0052
vn -0.0006 -1.0000 -0.0015
vn 0.0032 -1.0000 0.0050
vn 0.0003 -1.0000 0.0007
vn -0.0021 -1.0000 -0.0060
vn -0.0034 -1.0000 -0.0059
vn 0.0011 -1.0000 -0.0006
vn -0.0003 1.0000 0.0003
vn -0.0088 0.9999 0.0147
vn 0.5968 0.0463 0.8011
vn 0.0221 0.4252 0.9048
vn -0.1402 0.0030 0.9901
vn -0.1282 -0.0005 0.9917
vn -0.0046 1.0000 0.0054
vn 0.1287 -0.0028 0.9917
vn -0.0083 0.9998 0.0153
vn -0.3159 -0.5961 0.7381
vn 0.1383 0.0072 0.9904
vn -0.0004 1.0000 0.0088
vn 0.2345 0.8722 0.4294
vn 0.1714 -0.8804 0.4423
vn -0.0407 -0.1084 0.9933
vn 0.3257 0.0463 0.9443
vn -0.8703 0.1562 0.4672
vn -0.4910 0.0555 0.8694
vn 0.4913 -0.0531 0.8694
vn 0.9671 0.0433 -0.2506
vn 0.9130 -0.0883 -0.3984
vn -0.0003 1.0000 0.0001
vn -0.0131 0.9997 0.0214
vn -0.0017 -0.9997 0.0241
vn -0.0040 -0.9998 0.0201
vn -0.3893 -0.0578 0.9193
vn -0.2877 0.0324 0.9572
vn 0.3615 0.0382 0.9316
vn 0.2059 -0.7732 0.5998
vn 0.3247 0.0014 0.9458
vn -0.7771 -0.1792 -0.6033
vn 0.0219 0.9996 0.0170
vn -0.0178 0.9833 0.1810
vn -0.7442 -0.1561 -0.6494
vn -0.0244 -0.9996 0.0107
vn -0.0299 0.9900 0.1376
vn -0.1277 -0.0588 0.9901
vn 0.1666 0.0046 0.9860
vn 0.1726 0.0104 0.9849
vn 0.0307 0.0636 0.9975
vn -0.0183 -0.0027 0.9998
vn -0.0000 -0.0000 -1.0000
vn -0.1736 -0.0000 -0.9848
vn -0.1738 -0.0000 -0.9848
vn 0.1736 -0.0000 -0.9848
vn -0.2095 -0.0076 -0.9778
vn -0.1810 -0.0341 -0.9829
vn 0.0067 0.0203 -0.9998
vn -0.0000 -1.0000 -0.0001
vn 0.1836 -0.0155 -0.9829
vn 0.2312 -0.0492 -0.9717
vn -0.3420 -0.0000 -0.9397
vn -0.3423 -0.0000 -0.9396
vn 0.3420 -0.0000 -0.9397
vn 0.3556 0.0249 -0.9343
vn -0.5000 -0.0000 -0.8660
vn 0.5000 -0.0000 -0.8660
vn -0.4831 0.0336 -0.8749
vn 0.9063 -0.0007 0.4226
vn 0.9065 -0.0002 0.4223
vn -0.6428 -0.0000 -0.7660
vn 0.6428 -0.0000 -0.7660
vn -0.6778 0.0090 -0.7352
vn -0.6140 -0.0536 -0.7875
vn -0.7660 -0.0000 -0.6428
vn 0.7660 -0.0000 -0.6428
vn -0.8160 -0.5297 -0.2315
vn -0.0001 -1.0000 0.0001
vn -0.8660 -0.0000 -0.5000
vn -0.8615 0.0035 -0.5078
vn -0.9397 -0.0000 -0.3420
vn 0.9397 -0.0000 -0.3420
vn -1.0000 -0.0000 0.0092
vn -0.8833 -0.0288 -0.4679
vn -0.1619 0.0409 0.9860
vn 0.3419 0.0240 0.9394
vn -0.2503 -0.0196 0.9680
vn -0.4372 -0.0005 0.8994
vn -0.4369 -0.0000 0.8995
vn -0.0002 -1.0000 -0.0000
vn 0.4209 -0.0268 0.9067
vn 0.7554 0.0617 0.6524
vn -0.9848 -0.0000 -0.1736
vn 0.9848 -0.0000 -0.1736
vn 0.0001 -1.0000 -0.0002
vn 0.7974 0.0296 0.6027
vn -0.3016 -0.0024 0.9534
vn -0.3445 -0.0000 0.9388
vn 0.3712 0.0024 0.9285
vn 0.4133 -0.0000 0.9106
vn -0.7580 -0.0000 0.6523
vn 0.8046 -0.0000 0.5938
vn -1.0000 -0.0000 -0.0000
vn 1.0000 -0.0000 -0.0000
vn -0.9797 -0.0000 0.2003
vn -0.9879 0.0024 0.1553
vn 0.9919 -0.0000 0.1270
vn 0.9966 -0.0024 0.0819
vn -0.8624 -0.0024 -0.5062
vn -0.8386 -0.0000 -0.5448
vn 0.8226 0.0024 -0.5686
vn 0.7958 -0.0000 -0.6056
vn -0.9848 -0.0000 0.1736
vn 0.9848 -0.0000 0.1736
vn -0.4133 -0.0000 -0.9106
vn -0.3712 0.0024 -0.9285
vn 0.3446 -0.0000 -0.9388
vn 0.3016 -0.0024 -0.9534
vn -0.9397 -0.0000 0.3420
vn 0.9397 -0.0000 0.3420
vn -0.8660 -0.0000 0.5000
vn 0.8660 -0.0000 0.5000
vn -0.7660 -0.0000 0.6428
vn 0.7660 -0.0000 0.6428
vn -0.6428 -0.0000 0.7660
vn 0.6428 -0.0000 0.7660
vn -0.5000 -0.0000 0.8660
vn 0.5000 -0.0000 0.8660
vn -0.3420 -0.0000 0.9397
vn 0.3423 -0.0000 0.9396
vn 0.3420 -0.0000 0.9397
vn -0.1736 -0.0000 0.9848
vn 0.1738 -0.0000 0.9848
vn 0.1736 -0.0000 0.9848
vn -0.0000 -0.0000 1.0000
vn 0.2243 0.1372 -0.9648
vn -0.1645 -0.1430 -0.9760
vn -0.0114 0.9358 -0.3525
vn -0.0010 1.0000 -0.0005
vn 0.0002 1.0000 -0.0014
vn 0.3211 -0.1090 -0.9407
vn 0.0018 -1.0000 -0.0001
vn 0.0007 1.0000 -0.0017
vn -0.2907 0.1060 -0.9509
vn -0.4775 -0.2229 -0.8499
vn -0.0008 -1.0000 -0.0015
vn 0.6591 -0.0143 -0.7520
vn 0.6855 0.1123 -0.7194
vn -0.0001 1.0000 -0.0001
vn -0.6990 0.0580 -0.7128
vn -0.0010 -1.0000 0.0008
vn -0.7534 -0.0850 -0.6520
vn 0.0017 1.0000 0.0007
vn -0.0000 -1.0000 -0.0009
vn -0.9429 -0.0304 -0.3316
vn 0.9643 0.0331 -0.2627
vn 0.9634 0.0440 -0.2644
vn -0.9544 0.1257 -0.2706
vn -0.0003 1.0000 -0.0000
vn 0.0007 1.0000 -0.0009
vn -0.1107 -0.0525 0.9925
vn -0.3015 0.0172 0.9533
vn 0.4132 0.0197 0.9104
vn 0.5922 -0.0485 0.8043
vn -0.7561 -0.0710 0.6506
vn -0.9797 0.0099 0.2003
vn 0.9929 -0.0860 0.0816
vn 0.9931 -0.0919 0.0726
vn -0.9590 -0.1237 -0.2549
vn -0.9722 -0.1620 0.1689
vn -0.0012 1.0000 0.0020
vn -0.8621 0.0287 -0.5060
vn 0.0019 -1.0000 -0.0013
vn 0.0001 -1.0000 0.0016
vn 0.7911 0.1085 -0.6020
vn -0.4128 0.0508 -0.9094
vn -0.0003 1.0000 -0.0001
vn 0.3015 -0.0264 -0.9531
vn 0.0025 -1.0000 0.0019
vn -0.0001 -1.0000 0.0005
vn -0.0001 -1.0000 -0.0000
vn 0.0021 1.0000 0.0003
vn 0.0997 -0.1754 -0.9794
vn -0.0006 -1.0000 0.0002
vn 0.4198 0.9076 0.0066
vn -0.9164 0.2497 0.3130
vn 0.9549 0.1009 0.2793
vn 0.9502 -0.0031 0.3117
vn 0.7615 -0.1301 0.6349
vn -0.4345 0.8699 0.2333
vn -0.7470 -0.0109 0.6647
vn -0.7244 -0.0966 0.6826
vn 0.2005 -0.9465 -0.2530
vn 0.6725 0.1068 0.7324
vn -0.6065 -0.1501 0.7808
vn 0.4353 -0.1649 0.8851
vn -0.2758 0.0030 0.9612
vn -0.2793 -0.0088 0.9602
vn 0.2461 0.1321 0.9602
vn 0.1663 -0.0063 0.9861
vn 0.0514 0.0934 -0.9943
vn 0.0084 -0.0192 0.9998
vn 0.1002 0.0220 -0.9947
vn -0.0000 0.0246 -0.9997
vn -0.0002 1.0000 0.0018
vn 0.1688 -0.0132 -0.9856
vn -0.1731 0.0007 -0.9849
vn -0.1551 -0.0059 -0.9879
vn -0.2576 -0.0000 -0.9663
vn 0.3560 -0.0017 0.9345
vn -0.3426 -0.0011 -0.9395
vn -0.3540 0.0058 -0.9352
vn -0.0011 1.0000 0.0017
vn 0.0009 1.0000 -0.0014
vn 0.3687 0.0200 -0.9293
vn 0.4171 -0.0076 -0.9088
vn 0.4743 -0.0531 -0.8787
vn -0.5581 -0.0412 -0.8288
vn 0.0835 0.9716 -0.2215
vn 0.8662 0.4668 0.1783
vn 0.9749 -0.1532 0.1619
vn -0.5757 -0.3013 -0.7601
vn 0.6056 0.0098 -0.7957
vn 0.0507 0.9975 -0.0501
vn -0.1090 0.9862 -0.1246
vn -0.6347 0.0139 -0.7726
vn -0.4123 -0.0544 0.9094
vn 0.0057 -1.0000 -0.0080
vn -0.5816 -0.0474 0.8121
vn 0.0852 0.9810 -0.1743
vn 0.7307 -0.0069 -0.6827
vn -0.0674 -0.9859 0.1532
vn 0.0691 0.9893 -0.1287
vn -0.1083 0.9864 -0.1238
vn 0.0002 1.0000 -0.0001
vn -0.0012 1.0000 -0.0002
vn -0.1102 0.9856 -0.1282
vn -0.0073 1.0000 0.0046
vn 0.8001 0.0277 -0.5993
vn 0.1736 0.9637 -0.2030
vn -0.8140 0.0315 -0.5800
vn -0.7996 -0.0037 -0.6005
vn -0.8096 -0.0200 -0.5866
vn 0.0514 0.9974 -0.0509
vn 0.8347 0.1349 -0.5339
vn 0.8941 -0.0244 -0.4471
vn 0.9092 -0.0037 -0.4163
vn -0.8739 -0.0000 -0.4861
vn -0.0006 1.0000 -0.0003
vn -0.9224 -0.0000 -0.3861
vn -0.1669 0.9818 -0.0909
vn 0.3844 -0.4044 0.8299
vn 0.9632 0.0037 -0.2686
vn 0.9705 -0.0067 -0.2409
vn 0.8500 -0.0575 0.5236
vn -0.9754 -0.0016 -0.2206
vn -0.0005 1.0000 -0.0019
vn 0.9959 0.0135 -0.0891
vn -0.9929 0.0309 -0.1150
vn -0.1108 0.0389 0.9931
vn 0.5909 -0.0829 0.8025
vn 0.6057 -0.0890 0.7907
vn -0.7578 0.0224 0.6521
vn -0.9012 -0.0459 0.4311
vn 0.9938 0.0843 0.0726
vn 0.0014 1.0000 -0.0004
vn 0.9939 0.1102 -0.0010
vn 0.9992 -0.0315 0.0242
vn 0.0004 1.0000 0.0002
vn -0.9659 0.0338 -0.2567
vn -0.0011 1.0000 -0.0002
vn 0.1427 0.9898 0.0031
vn -0.7334 -0.5080 -0.4518
vn -0.9932 -0.0422 0.1087
vn 0.2618 0.9644 0.0379
vn -0.9926 0.0266 0.1189
vn 0.9956 0.0044 0.0936
vn -0.9901 -0.0085 0.1403
vn 0.0005 1.0000 -0.0002
vn 0.0006 1.0000 -0.0001
vn -0.7963 -0.0402 -0.6035
vn -0.0000 1.0000 0.0005
vn -0.0002 1.0000 0.0003
vn 0.5051 -0.0884 -0.8585
vn 0.1011 0.0536 -0.9934
vn -0.1325 0.9912 -0.0014
vn 0.9679 -0.0052 0.2514
vn -0.0010 1.0000 0.0002
vn -0.9917 -0.0555 0.1161
vn 0.1893 0.9817 -0.0221
vn 0.9449 0.0275 0.3261
vn -0.8962 0.0819 0.4360
vn -0.9158 0.0232 0.4010
vn -0.9222 -0.0085 -0.3866
vn -0.3635 0.9098 0.2005
vn -0.4918 0.8358 0.2442
vn 0.0063 1.0000 0.0010
vn 0.1226 0.9879 0.0950
vn 0.9218 -0.0313 0.3864
vn 0.8904 -0.0100 0.4551
vn 0.8364 -0.0677 0.5439
vn -0.8721 -0.0491 0.4868
vn 0.7918 0.0084 0.6107
vn -0.8344 -0.0092 0.5511
vn 0.7901 0.0103 0.6129
vn -0.7191 0.0011 0.6949
vn 0.0524 0.9946 0.0898
vn 0.2039 -0.8713 -0.4464
vn 0.1409 0.9773 0.1583
vn -0.1855 0.9021 0.3896
vn 0.0001 1.0000 -0.0003
vn -0.0009 1.0000 0.0014
vn 0.5304 -0.1214 -0.8390
vn -0.6056 0.0100 0.7957
vn -0.0349 0.9842 0.1737
vn -0.0387 0.9890 0.1426
vn 0.4938 0.1868 0.8492
vn 0.5988 0.0079 0.8009
vn 0.5078 -0.0801 0.8577
vn -0.0001 1.0000 -0.0003
vn -0.5393 -0.0167 0.8420
vn -0.4739 -0.0587 0.8786
vn 0.4029 0.0079 0.9152
vn -0.4030 0.0005 0.9152
vn -0.3687 0.0200 0.9293
vn 0.1676 -0.0074 0.9858
vn -0.1688 -0.0132 0.9856
vn 0.1144 0.0249 0.9931
vn 0.0188 0.1836 0.9828
vn -0.0937 0.0253 0.9953
s 0
f 1//1 2//1 3//1
f 2//2 4//2 3//2
f 5//3 1//3 3//3
f 5//4 6//4 1//4
f 6//5 7//5 1//5
f 8//6 1//6 7//6
f 4//7 9//7 3//7
f 1//8 10//8 2//8
f 8//9 5//9 1//9
f 10//10 1//10 3//10
f 11//11 9//11 4//11
f 5//12 12//12 6//12
f 13//13 8//13 7//13
f 9//14 10//14 3//14
f 2//15 14//15 4//15
f 14//16 15//16 4//16
f 16//17 7//17 6//17
f 16//18 17//18 7//18
f 15//19 11//19 4//19
f 17//20 13//20 7//20
f 8//21 12//21 5//21
f 13//22 12//22 8//22
f 14//23 18//23 15//23
f 19//24 17//24 16//24
f 19//25 20//25 17//25
f 13//26 10//26 9//26
f 12//27 13//27 9//27
f 11//28 12//28 9//28
f 12//29 16//29 6//29
f 10//30 14//30 2//30
f 21//31 22//31 11//31
f 22//28 12//28 11//28
f 23//32 16//32 12//32
f 22//28 23//28 12//28
f 10//33 18//33 14//33
f 13//34 24//34 10//34
f 24//35 25//35 10//35
f 26//36 24//36 13//36
f 17//37 26//37 13//37
f 27//38 28//38 29//38
f 21//39 30//39 22//39
f 30//40 23//40 22//40
f 29//41 23//41 30//41
f 21//42 28//42 30//42
f 28//43 31//43 29//43
f 31//44 32//44 29//44
f 32//45 23//45 29//45
f 21//46 31//46 28//46
f 28//47 27//47 30//47
f 27//48 29//48 30//48
f 31//49 33//49 32//49
f 11//50 31//50 21//50
f 34//51 35//51 32//51
f 35//52 23//52 32//52
f 36//53 34//53 32//53
f 18//54 37//54 15//54
f 37//55 38//55 15//55
f 38//56 11//56 15//56
f 39//57 20//57 19//57
f 40//58 17//58 20//58
f 38//59 41//59 11//59
f 41//60 31//60 11//60
f 35//61 16//61 23//61
f 35//62 42//62 16//62
f 42//63 19//63 16//63
f 41//64 43//64 31//64
f 44//65 45//65 34//65
f 45//66 35//66 34//66
f 36//67 44//67 34//67
f 46//68 44//68 36//68
f 47//69 38//69 18//69
f 10//70 47//70 18//70
f 48//71 47//71 10//71
f 25//72 48//72 10//72
f 49//73 24//73 26//73
f 50//74 42//74 17//74
f 42//75 26//75 17//75
f 36//76 51//76 27//76
f 51//77 52//77 27//77
f 53//78 43//78 41//78
f 54//79 53//79 41//79
f 38//80 54//80 41//80
f 45//81 42//81 35//81
f 25//82 24//82 55//82
f 51//83 56//83 55//83
f 52//84 51//84 55//84
f 56//85 25//85 55//85
f 57//86 52//86 55//86
f 24//87 58//87 55//87
f 58//88 57//88 55//88
f 33//89 59//89 32//89
f 59//90 36//90 32//90
f 51//91 60//91 56//91
f 60//92 25//92 56//92
f 61//93 52//93 57//93
f 58//94 61//94 57//94
f 62//95 63//95 18//95
f 64//96 50//96 17//96
f 40//97 64//97 17//97
f 59//98 51//98 36//98
f 47//99 54//99 38//99
f 65//100 31//100 43//100
f 49//101 58//101 24//101
f 65//102 66//102 31//102
f 66//103 33//103 31//103
f 67//104 18//104 38//104
f 37//105 67//105 38//105
f 50//106 19//106 42//106
f 68//107 59//107 33//107
f 68//108 51//108 59//108
f 69//109 67//109 37//109
f 60//110 48//110 25//110
f 49//111 61//111 58//111
f 36//112 70//112 46//112
f 62//113 54//113 47//113
f 48//114 62//114 47//114
f 51//115 71//115 60//115
f 71//116 72//116 60//116
f 72//117 48//117 60//117
f 73//118 52//118 61//118
f 74//119 73//119 61//119
f 49//120 74//120 61//120
f 73//121 45//121 44//121
f 53//122 65//122 43//122
f 75//123 65//123 53//123
f 54//124 75//124 53//124
f 46//125 76//125 45//125
f 44//126 46//126 45//126
f 77//127 42//127 45//127
f 76//128 77//128 45//128
f 68//129 71//129 51//129
f 18//130 78//130 37//130
f 78//131 79//131 37//131
f 80//132 20//132 39//132
f 80//133 40//133 20//133
f 27//134 70//134 36//134
f 81//135 26//135 42//135
f 77//136 81//136 42//136
f 81//137 49//137 26//137
f 44//138 73//138 27//138
f 73//139 70//139 27//139
f 52//140 73//140 27//140
f 62//141 18//141 67//141
f 50//142 77//142 19//142
f 77//143 82//143 19//143
f 81//144 77//144 50//144
f 64//145 81//145 50//145
f 83//146 69//146 37//146
f 82//147 39//147 19//147
f 63//148 78//148 18//148
f 84//149 64//149 40//149
f 85//150 62//150 48//150
f 66//151 68//151 33//151
f 86//28 75//28 54//28
f 87//152 49//152 81//152
f 71//153 88//153 72//153
f 88//154 85//154 72//154
f 85//155 48//155 72//155
f 89//156 73//156 74//156
f 90//157 89//157 74//157
f 49//158 91//158 74//158
f 91//159 90//159 74//159
f 79//160 83//160 37//160
f 54//161 62//161 67//161
f 86//28 54//28 67//28
f 69//28 86//28 67//28
f 76//28 82//28 77//28
f 85//162 92//162 62//162
f 64//163 87//163 81//163
f 86//164 93//164 75//164
f 93//165 65//165 75//165
f 94//166 82//166 76//166
f 46//167 94//167 76//167
f 66//168 71//168 68//168
f 73//169 89//169 70//169
f 66//170 95//170 71//170
f 95//171 88//171 71//171
f 87//172 91//172 49//172
f 96//173 65//173 93//173
f 87//174 90//174 91//174
f 96//175 66//175 65//175
f 95//176 97//176 88//176
f 97//177 92//177 88//177
f 92//178 85//178 88//178
f 98//179 89//179 90//179
f 87//180 98//180 90//180
f 80//181 84//181 40//181
f 99//182 83//182 79//182
f 63//183 100//183 78//183
f 101//184 94//184 46//184
f 102//185 101//185 46//185
f 70//186 102//186 46//186
f 103//187 95//187 66//187
f 89//188 102//188 70//188
f 95//189 104//189 97//189
f 104//190 92//190 97//190
f 105//31 106//31 98//31
f 106//191 89//191 98//191
f 87//192 64//192 98//192
f 64//193 105//193 98//193
f 107//194 103//194 66//194
f 108//195 82//195 94//195
f 86//196 109//196 93//196
f 109//197 96//197 93//197
f 107//198 110//198 103//198
f 89//199 106//199 102//199
f 78//200 100//200 79//200
f 100//201 99//201 79//201
f 111//202 84//202 80//202
f 39//203 111//203 80//203
f 112//204 83//204 99//204
f 113//31 69//31 83//31
f 112//205 114//205 83//205
f 114//28 115//28 83//28
f 115//28 116//28 83//28
f 109//206 86//206 69//206
f 108//28 117//28 82//28
f 117//207 39//207 82//207
f 117//208 118//208 39//208
f 118//209 111//209 39//209
f 119//210 120//210 63//210
f 62//211 119//211 63//211
f 120//212 121//212 63//212
f 92//213 119//213 62//213
f 84//214 122//214 64//214
f 110//215 95//215 103//215
f 106//216 123//216 102//216
f 96//217 107//217 66//217
f 69//218 96//218 109//218
f 101//219 108//219 94//219
f 69//220 124//220 96//220
f 104//221 119//221 92//221
f 125//222 105//222 64//222
f 124//223 107//223 96//223
f 95//224 126//224 104//224
f 126//225 127//225 104//225
f 127//226 119//226 104//226
f 128//31 106//31 105//31
f 125//227 128//227 105//227
f 113//228 124//228 69//228
f 101//229 129//229 108//229
f 129//28 117//28 108//28
f 123//230 101//230 102//230
f 126//231 95//231 110//231
f 100//232 130//232 99//232
f 130//233 131//233 99//233
f 132//234 84//234 111//234
f 118//235 132//235 111//235
f 132//236 122//236 84//236
f 131//237 112//237 99//237
f 83//238 133//238 113//238
f 133//239 124//239 113//239
f 101//240 134//240 129//240
f 134//241 135//241 129//241
f 135//28 136//28 129//28
f 136//28 117//28 129//28
f 137//242 107//242 124//242
f 138//243 125//243 64//243
f 139//244 138//244 64//244
f 126//245 140//245 127//245
f 140//246 141//246 127//246
f 141//247 119//247 127//247
f 142//248 143//248 128//248
f 143//249 106//249 128//249
f 125//250 142//250 128//250
f 141//251 120//251 119//251
f 144//252 142//252 125//252
f 138//253 144//253 125//253
f 143//254 123//254 106//254
f 145//255 146//255 101//255
f 123//256 145//256 101//256
f 147//257 110//257 107//257
f 147//258 126//258 110//258
f 143//259 148//259 123//259
f 148//260 149//260 123//260
f 63//261 114//261 112//261
f 100//262 63//262 112//262
f 64//263 122//263 117//263
f 122//264 118//264 117//264
f 139//265 64//265 117//265
f 136//266 139//266 117//266
f 146//267 148//267 101//267
f 133//268 147//268 124//268
f 150//269 100//269 112//269
f 149//270 145//270 123//270
f 124//271 147//271 137//271
f 148//272 134//272 101//272
f 63//273 115//273 114//273
f 147//274 151//274 126//274
f 151//275 140//275 126//275
f 152//276 135//276 134//276
f 151//277 153//277 140//277
f 153//278 154//278 140//278
f 154//279 141//279 140//279
f 155//280 143//280 142//280
f 144//281 155//281 142//281
f 115//282 150//282 112//282
f 156//283 133//283 83//283
f 116//31 156//31 83//31
f 152//28 136//28 135//28
f 154//284 120//284 141//284
f 138//285 155//285 144//285
f 132//286 157//286 122//286
f 150//287 130//287 100//287
f 139//288 158//288 138//288
f 150//289 115//289 63//289
f 121//290 150//290 63//290
f 159//291 139//291 136//291
f 152//28 159//28 136//28
f 145//292 134//292 146//292
f 134//293 148//293 146//293
f 160//28 161//28 159//28
f 152//28 160//28 159//28
f 122//294 159//294 118//294
f 159//295 132//295 118//295
f 162//296 130//296 150//296
f 163//297 158//297 139//297
f 157//298 163//298 139//298
f 139//299 159//299 122//299
f 164//300 137//300 147//300
f 165//301 116//301 115//301
f 133//302 164//302 147//302
f 156//303 164//303 133//303
f 145//304 152//304 134//304
f 112//305 165//305 115//305
f 161//306 132//306 159//306
f 121//307 162//307 150//307
f 122//308 157//308 139//308
f 166//309 151//309 147//309
f 107//310 166//310 147//310
f 143//311 149//311 148//311
f 137//312 166//312 107//312
f 149//313 167//313 145//313
f 168//314 153//314 151//314
f 169//315 155//315 138//315
f 168//316 154//316 153//316
f 169//317 143//317 155//317
f 170//318 137//318 164//318
f 160//319 152//319 145//319
f 167//320 160//320 145//320
f 156//321 171//321 164//321
f 171//322 170//322 164//322
f 116//323 171//323 156//323
f 172//324 121//324 120//324
f 131//325 165//325 112//325
f 130//326 162//326 131//326
f 162//327 165//327 131//327
f 173//328 157//328 132//328
f 173//329 174//329 157//329
f 175//330 149//330 143//330
f 169//331 175//331 143//331
f 166//332 176//332 151//332
f 177//333 149//333 175//333
f 178//334 176//334 166//334
f 177//335 179//335 149//335
f 170//336 166//336 137//336
f 180//337 170//337 116//337
f 170//338 171//338 116//338
f 181//339 168//339 151//339
f 168//340 120//340 154//340
f 158//341 169//341 138//341
f 181//342 120//342 168//342
f 182//31 175//31 169//31
f 158//343 182//343 169//343
f 183//344 182//344 158//344
f 184//345 172//345 120//345
f 180//346 185//346 170//346
f 186//347 185//347 180//347
f 116//206 186//206 180//206
f 167//348 187//348 160//348
f 187//349 161//349 160//349
f 165//350 188//350 116//350
f 188//351 189//351 116//351
f 189//352 186//352 116//352
f 189//353 190//353 186//353
f 173//354 132//354 161//354
f 191//355 173//355 161//355
f 163//356 183//356 158//356
f 192//357 183//357 163//357
f 157//358 174//358 163//358
f 174//359 193//359 163//359
f 177//360 187//360 167//360
f 176//361 194//361 151//361
f 194//362 181//362 151//362
f 195//363 177//363 175//363
f 182//364 195//364 175//364
f 196//365 177//365 167//365
f 149//366 197//366 167//366
f 178//367 194//367 176//367
f 195//368 179//368 177//368
f 198//369 181//369 194//369
f 181//370 184//370 120//370
f 198//371 184//371 181//371
f 199//372 195//372 182//372
f 183//373 199//373 182//373
f 185//374 200//374 170//374
f 200//375 166//375 170//375
f 198//376 201//376 184//376
f 202//377 199//377 183//377
f 196//378 197//378 177//378
f 192//379 202//379 183//379
f 179//380 197//380 149//380
f 197//381 196//381 167//381
f 197//382 187//382 177//382
f 203//383 161//383 187//383
f 190//384 185//384 186//384
f 204//385 191//385 161//385
f 203//28 204//28 161//28
f 197//386 203//386 187//386
f 205//387 194//387 178//387
f 195//388 206//388 179//388
f 206//389 207//389 179//389
f 190//390 200//390 185//390
f 208//391 198//391 194//391
f 166//392 209//392 178//392
f 162//393 121//393 165//393
f 121//394 188//394 165//394
f 210//395 174//395 173//395
f 191//396 210//396 173//396
f 210//397 193//397 174//397
f 200//398 209//398 166//398
f 208//399 201//399 198//399
f 211//400 195//400 199//400
f 202//401 211//401 199//401
f 212//402 211//402 202//402
f 192//403 212//403 202//403
f 213//404 197//404 179//404
f 205//405 214//405 194//405
f 214//406 208//406 194//406
f 215//407 206//407 195//407
f 211//408 215//408 195//408
f 178//409 216//409 205//409
f 217//410 207//410 206//410
f 218//411 200//411 190//411
f 219//412 218//412 190//412
f 197//413 220//413 203//413
f 220//414 204//414 203//414
f 221//31 208//31 214//31
f 209//415 216//415 178//415
f 189//416 172//416 190//416
f 172//417 219//417 190//417
f 192//418 191//418 204//418
f 192//419 163//419 191//419
f 208//420 184//420 201//420
f 221//421 184//421 208//421
f 222//422 215//422 211//422
f 212//423 222//423 211//423
f 200//424 223//424 205//424
f 221//425 224//425 184//425
f 225//426 222//426 212//426
f 226//427 216//427 209//427
f 216//428 214//428 205//428
f 215//429 217//429 206//429
f 224//430 227//430 184//430
f 227//431 172//431 184//431
f 228//432 225//432 212//432
f 192//433 229//433 212//433
f 229//434 228//434 212//434
f 216//435 230//435 214//435
f 230//436 221//436 214//436
f 163//437 231//437 191//437
f 189//438 121//438 172//438
f 193//439 231//439 163//439
f 226//440 207//440 217//440
f 229//441 192//441 204//441
f 232//442 229//442 204//442
f 220//443 232//443 204//443
f 121//444 233//444 188//444
f 233//445 234//445 188//445
f 235//446 193//446 210//446
f 191//447 235//447 210//447
f 235//448 236//448 193//448
f 237//449 221//449 230//449
f 238//450 239//450 206//450
f 206//451 220//451 238//451
f 200//452 218//452 223//452
f 239//453 238//453 197//453
f 213//454 239//454 197//454
f 238//455 220//455 197//455
f 226//456 179//456 207//456
f 239//457 240//457 220//457
f 240//458 232//458 220//458
f 239//459 220//459 206//459
f 241//460 222//460 225//460
f 237//461 224//461 221//461
f 242//462 215//462 222//462
f 241//463 242//463 222//463
f 243//464 218//464 219//464
f 244//465 243//465 219//465
f 245//466 229//466 232//466
f 246//466 245//466 232//466
f 247//28 246//28 232//28
f 240//28 247//28 232//28
f 227//467 219//467 172//467
f 245//28 228//28 229//28
f 242//468 217//468 215//468
f 237//469 248//469 224//469
f 249//470 242//470 241//470
f 225//471 249//471 241//471
f 242//472 250//472 217//472
f 234//473 189//473 188//473
f 231//474 235//474 191//474
f 251//475 226//475 217//475
f 250//476 251//476 217//476
f 252//477 239//477 213//477
f 226//478 213//478 179//478
f 253//479 237//479 230//479
f 200//480 223//480 209//480
f 251//481 250//481 230//481
f 216//482 251//482 230//482
f 250//483 253//483 230//483
f 228//484 245//484 246//484
f 231//485 228//485 246//485
f 247//486 254//486 246//486
f 254//487 231//487 246//487
f 242//488 253//488 250//488
f 226//489 255//489 216//489
f 255//490 251//490 216//490
f 255//491 226//491 251//491
f 253//492 248//492 237//492
f 249//493 253//493 242//493
f 227//494 189//494 219//494
f 234//495 244//495 219//495
f 189//496 234//496 219//496
f 254//497 235//497 231//497
f 121//498 189//498 227//498
f 231//499 193//499 228//499
f 253//500 256//500 248//500
f 256//501 224//501 248//501
f 252//502 240//502 239//502
f 256//503 253//503 249//503
f 225//504 256//504 249//504
f 218//505 257//505 223//505
f 257//506 209//506 223//506
f 247//507 240//507 252//507
f 213//508 247//508 252//508
f 209//509 213//509 226//509
f 243//510 257//510 218//510
f 209//511 257//511 243//511
f 258//512 209//512 243//512
f 244//465 258//465 243//465
f 213//513 259//513 247//513
f 259//514 254//514 247//514
f 251//515 259//515 255//515
f 260//516 259//516 251//516
f 209//517 260//517 251//517
f 224//518 261//518 227//518
f 233//519 121//519 227//519
f 261//520 233//520 227//520
f 256//521 261//521 224//521
f 228//522 262//522 225//522
f 193//523 236//523 228//523
f 263//524 262//524 228//524
f 236//116 263//116 228//116
f 264//525 261//525 256//525
f 264//526 256//526 225//526
f 262//527 264//527 225//527
f 265//528 258//528 244//528
f 266//529 254//529 259//529
f 267//530 236//530 235//530
f 255//531 213//531 209//531
f 260//532 209//532 258//532
f 268//533 260//533 258//533
f 265//534 268//534 258//534
f 260//535 268//535 259//535
f 268//536 266//536 259//536
f 255//537 209//537 251//537
f 213//538 255//538 259//538
f 265//539 266//539 268//539
f 254//540 267//540 235//540
f 269//541 263//541 236//541
f 264//542 266//542 265//542
f 261//543 264//543 265//543
f 262//544 266//544 264//544
f 233//545 244//545 234//545
f 267//546 269//546 236//546
f 270//547 261//547 265//547
f 271//548 270//548 265//548
f 244//549 271//549 265//549
f 272//550 254//550 266//550
f 273//551 233//551 261//551
f 270//552 273//552 261//552
f 233//553 273//553 244//553
f 273//554 274//554 244//554
f 254//555 269//555 267//555
f 275//556 263//556 269//556
f 254//557 275//557 269//557
f 262//558 271//558 266//558
f 271//559 272//559 266//559
f 244//560 274//560 271//560
f 270//561 271//561 262//561
f 263//562 270//562 262//562
f 274//563 272//563 271//563
f 273//564 270//564 274//564
f 272//565 275//565 254//565
f 272//566 263//566 275//566
f 270//567 263//567 274//567
f 263//568 272//568 274//568
f 276//569 277//569 278//569
f 277//570 279//570 278//570
f 279//571 280//571 278//571
f 281//28 276//28 278//28
f 280//28 281//28 278//28
f 282//572 283//572 276//572
f 283//569 277//569 276//569
f 281//28 282//28 276//28
f 283//31 284//31 277//31
f 284//31 285//31 277//31
f 285//31 279//31 277//31
f 282//572 286//572 283//572
f 286//31 287//31 283//31
f 287//31 284//31 283//31
f 288//573 289//573 285//573
f 290//574 288//574 285//574
f 284//575 290//575 285//575
f 289//31 279//31 285//31
f 291//576 288//576 290//576
f 287//577 290//577 284//577
f 287//578 292//578 290//578
f 292//576 291//576 290//576
f 279//579 293//579 280//579
f 293//580 294//580 280//580
f 294//28 281//28 280//28
f 295//581 286//581 282//581
f 281//28 295//28 282//28
f 289//31 293//31 279//31
f 295//581 296//581 286//581
f 296//31 297//31 286//31
f 297//31 287//31 286//31
f 297//582 292//582 287//582
f 293//583 298//583 294//583
f 298//583 299//583 294//583
f 300//28 281//28 294//28
f 299//28 300//28 294//28
f 301//584 296//584 295//584
f 281//28 302//28 295//28
f 302//28 301//28 295//28
f 289//31 298//31 293//31
f 301//584 303//584 296//584
f 303//31 297//31 296//31
f 288//585 304//585 289//585
f 304//31 298//31 289//31
f 303//31 305//31 297//31
f 305//586 292//586 297//586
f 305//587 306//587 292//587
f 306//31 291//31 292//31
f 298//588 307//588 299//588
f 307//588 308//588 299//588
f 308//28 300//28 299//28
f 309//589 303//589 301//589
f 302//28 309//28 301//28
f 304//31 307//31 298//31
f 309//589 310//589 303//589
f 310//31 311//31 303//31
f 311//31 305//31 303//31
f 312//590 313//590 304//590
f 288//591 312//591 304//591
f 313//31 307//31 304//31
f 291//31 312//31 288//31
f 307//592 314//592 308//592
f 314//592 315//592 308//592
f 315//28 300//28 308//28
f 316//593 310//593 309//593
f 302//28 316//28 309//28
f 313//31 314//31 307//31
f 316//593 317//593 310//593
f 317//31 311//31 310//31
f 318//406 312//406 291//406
f 319//31 320//31 318//31
f 320//31 312//31 318//31
f 291//594 321//594 318//594
f 322//31 319//31 318//31
f 306//595 318//595 291//595
f 323//31 322//31 318//31
f 306//31 323//31 318//31
f 314//596 324//596 315//596
f 324//596 325//596 315//596
f 325//28 326//28 315//28
f 326//28 300//28 315//28
f 327//466 317//466 316//466
f 328//28 327//28 316//28
f 302//28 328//28 316//28
f 313//31 324//31 314//31
f 327//466 329//466 317//466
f 330//31 311//31 317//31
f 329//31 330//31 317//31
f 312//597 331//597 313//597
f 331//31 324//31 313//31
f 324//598 332//598 325//598
f 332//598 333//598 325//598
f 333//28 326//28 325//28
f 334//599 329//599 327//599
f 328//28 334//28 327//28
f 331//31 332//31 324//31
f 334//599 335//599 329//599
f 335//31 330//31 329//31
f 336//31 332//31 331//31
f 320//600 336//600 331//600
f 312//601 320//601 331//601
f 306//602 337//602 323//602
f 337//603 322//603 323//603
f 305//604 337//604 306//604
f 338//31 332//31 336//31
f 339//31 338//31 336//31
f 319//605 339//605 336//605
f 320//606 319//606 336//606
f 305//290 340//290 337//290
f 341//607 342//607 337//607
f 340//406 341//406 337//406
f 342//608 322//608 337//608
f 343//31 338//31 339//31
f 311//31 340//31 305//31
f 342//609 319//609 322//609
f 332//610 338//610 333//610
f 338//610 344//610 333//610
f 344//28 326//28 333//28
f 345//611 335//611 334//611
f 346//28 345//28 334//28
f 328//28 346//28 334//28
f 345//611 347//611 335//611
f 348//31 330//31 335//31
f 347//31 348//31 335//31
f 341//145 349//145 342//145
f 349//612 339//612 342//612
f 339//613 319//613 342//613
f 350//31 351//31 339//31
f 351//31 352//31 339//31
f 352//31 353//31 339//31
f 354//31 355//31 339//31
f 355//31 350//31 339//31
f 349//31 354//31 339//31
f 356//31 357//31 339//31
f 358//31 359//31 339//31
f 359//31 356//31 339//31
f 360//31 343//31 339//31
f 357//31 360//31 339//31
f 353//31 361//31 339//31
f 361//31 362//31 339//31
f 362//31 363//31 339//31
f 363//31 358//31 339//31
f 340//614 302//614 281//614
f 311//615 302//615 340//615
f 341//616 340//616 281//616
f 300//617 341//617 281//617
f 311//618 328//618 302//618
f 330//618 328//618 311//618
f 349//619 341//619 300//619
f 326//619 349//619 300//619
f 338//620 343//620 344//620
f 343//620 364//620 344//620
f 365//28 326//28 344//28
f 364//28 365//28 344//28
f 366//621 347//621 345//621
f 346//28 366//28 345//28
f 366//621 367//621 347//621
f 367//31 348//31 347//31
f 330//622 346//622 328//622
f 348//623 346//623 330//623
f 354//624 349//624 326//624
f 365//625 354//625 326//625
f 364//28 368//28 365//28
f 369//28 366//28 346//28
f 370//28 371//28 346//28
f 371//28 372//28 346//28
f 372//28 369//28 346//28
f 348//626 370//626 346//626
f 373//627 370//627 348//627
f 374//31 373//31 348//31
f 375//31 374//31 348//31
f 367//31 376//31 348//31
f 376//31 375//31 348//31
f 368//28 377//28 365//28
f 377//28 378//28 365//28
f 378//28 379//28 365//28
f 355//628 354//628 365//628
f 379//629 355//629 365//629
f 343//630 360//630 364//630
f 360//630 368//630 364//630
f 369//631 367//631 366//631
f 369//631 376//631 367//631
f 380//28 381//28 370//28
f 381//28 371//28 370//28
f 382//28 380//28 370//28
f 383//28 382//28 370//28
f 373//632 383//632 370//632
f 384//633 383//633 373//633
f 385//31 384//31 373//31
f 374//31 385//31 373//31
f 386//28 387//28 379//28
f 387//28 383//28 379//28
f 378//28 388//28 379//28
f 388//28 386//28 379//28
f 384//634 355//634 379//634
f 383//635 384//635 379//635
f 384//31 350//31 355//31
f 389//28 382//28 383//28
f 390//28 391//28 383//28
f 391//28 389//28 383//28
f 385//31 350//31 384//31
f 387//28 392//28 383//28
f 392//28 390//28 383//28
f 360//636 357//636 368//636
f 357//636 377//636 368//636
f 372//637 376//637 369//637
f 372//637 375//637 376//637
f 357//638 356//638 377//638
f 356//638 378//638 377//638
f 371//639 375//639 372//639
f 371//639 374//639 375//639
f 356//640 359//640 378//640
f 359//640 388//640 378//640
f 381//641 374//641 371//641
f 381//641 385//641 374//641
f 359//642 358//642 388//642
f 358//642 386//642 388//642
f 380//643 385//643 381//643
f 380//643 350//643 385//643
f 358//644 363//644 386//644
f 363//644 387//644 386//644
f 382//645 350//645 380//645
f 382//645 351//645 350//645
f 363//646 362//646 387//646
f 362//646 392//646 387//646
f 389//647 351//647 382//647
f 389//648 352//648 351//648
f 362//649 361//649 392//649
f 361//649 390//649 392//649
f 391//650 352//650 389//650
f 391//651 353//651 352//651
f 361//652 353//652 390//652
f 353//652 391//652 390//652
f 393//653 394//653 395//653
f 281//31 280//31 394//31
f 280//654 395//654 394//654
f 396//655 393//655 395//655
f 396//656 397//656 393//656
f 398//657 397//657 396//657
f 399//658 394//658 393//658
f 302//31 281//31 394//31
f 399//659 302//659 394//659
f 400//660 398//660 396//660
f 280//661 396//661 395//661
f 281//31 401//31 280//31
f 401//662 396//662 280//662
f 402//663 302//663 399//663
f 393//664 402//664 399//664
f 281//31 300//31 401//31
f 403//665 402//665 393//665
f 404//666 398//666 400//666
f 328//31 302//31 402//31
f 400//667 396//667 401//667
f 326//668 405//668 401//668
f 300//31 326//31 401//31
f 405//669 400//669 401//669
f 397//28 406//28 393//28
f 406//670 403//670 393//670
f 326//671 407//671 405//671
f 407//672 400//672 405//672
f 408//290 346//290 402//290
f 346//31 328//31 402//31
f 409//673 408//673 402//673
f 403//674 409//674 402//674
f 410//675 400//675 407//675
f 410//528 404//528 400//528
f 411//676 404//676 410//676
f 406//677 412//677 403//677
f 326//31 365//31 407//31
f 398//678 281//678 397//678
f 302//679 397//679 281//679
f 300//680 281//680 398//680
f 404//681 300//681 398//681
f 302//682 406//682 397//682
f 328//682 406//682 302//682
f 326//619 300//619 404//619
f 346//683 406//683 328//683
f 365//684 326//684 404//684
f 411//685 365//685 404//685
f 413//28 412//28 406//28
f 346//686 413//686 406//686
f 414//31 407//31 365//31
f 414//687 410//687 407//687
f 415//688 412//688 413//688
f 370//689 413//689 346//689
f 416//690 417//690 346//690
f 417//31 370//31 346//31
f 408//691 416//691 346//691
f 379//692 365//692 411//692
f 379//31 414//31 365//31
f 383//693 413//693 370//693
f 417//31 383//31 370//31
f 410//694 418//694 411//694
f 383//695 379//695 411//695
f 419//696 420//696 379//696
f 383//697 419//697 379//697
f 420//698 414//698 379//698
f 421//699 415//699 413//699
f 411//28 421//28 413//28
f 383//700 411//700 413//700
f 389//701 422//701 383//701
f 417//31 389//31 383//31
f 418//28 421//28 411//28
f 422//701 419//701 383//701
f 412//702 409//702 403//702
f 414//703 423//703 410//703
f 412//704 408//704 409//704
f 412//705 416//705 408//705
f 412//706 417//706 416//706
f 423//707 418//707 410//707
f 414//708 418//708 423//708
f 420//709 418//709 414//709
f 419//710 420//710 424//710
f 412//711 415//711 417//711
f 420//712 419//712 418//712
f 415//713 389//713 417//713
f 422//714 418//714 419//714
f 422//715 421//715 418//715
f 421//716 389//716 415//716
f 421//717 422//717 389//717
f 425//718 426//718 427//718
f 428//719 425//719 427//719
f 426//720 429//720 427//720
f 429//721 428//721 427//721
f 425//722 430//722 426//722
f 426//723 431//723 429//723
f 431//31 397//31 429//31
f 432//31 425//31 428//31
f 433//724 432//724 428//724
f 429//725 433//725 428//725
f 398//31 433//31 429//31
f 397//31 398//31 429//31
f 433//726 434//726 432//726
f 398//31 434//31 433//31
f 434//727 425//727 432//727
f 434//728 435//728 425//728
f 435//729 436//729 425//729
f 398//31 435//31 434//31
f 430//730 437//730 426//730
f 437//731 438//731 426//731
f 438//732 431//732 426//732
f 439//733 431//733 438//733
f 439//734 440//734 431//734
f 440//31 397//31 431//31
f 441//735 436//735 435//735
f 398//31 441//31 435//31
f 425//736 442//736 430//736
f 443//737 440//737 439//737
f 438//738 443//738 439//738
f 438//739 440//739 443//739
f 437//740 440//740 438//740
f 444//741 445//741 436//741
f 445//742 425//742 436//742
f 441//743 444//743 436//743
f 398//31 404//31 441//31
f 446//744 447//744 437//744
f 446//745 448//745 437//745
f 448//746 440//746 437//746
f 437//747 430//747 442//747
f 448//748 449//748 440//748
f 449//31 397//31 440//31
f 450//749 446//749 437//749
f 451//666 452//666 442//666
f 442//750 450//750 437//750
f 445//751 442//751 425//751
f 452//752 450//752 442//752
f 453//753 451//753 442//753
f 445//754 453//754 442//754
f 454//755 448//755 446//755
f 455//756 449//756 448//756
f 406//31 397//31 449//31
f 450//757 454//757 446//757
f 456//758 457//758 444//758
f 441//759 456//759 444//759
f 458//760 456//760 441//760
f 404//31 458//31 441//31
f 444//761 453//761 445//761
f 454//762 455//762 448//762
f 455//763 459//763 449//763
f 459//31 406//31 449//31
f 454//764 459//764 455//764
f 458//765 457//765 456//765
f 460//766 444//766 457//766
f 458//767 460//767 457//767
f 461//767 460//767 458//767
f 404//31 461//31 458//31
f 460//768 453//768 444//768
f 462//769 453//769 460//769
f 463//28 464//28 454//28
f 464//770 459//770 454//770
f 464//771 465//771 459//771
f 465//31 406//31 459//31
f 461//772 466//772 460//772
f 461//773 467//773 466//773
f 404//31 411//31 461//31
f 411//31 467//31 461//31
f 468//774 451//774 453//774
f 469//775 465//775 464//775
f 470//776 466//776 467//776
f 452//752 471//752 450//752
f 398//777 397//777 452//777
f 404//778 398//778 452//778
f 451//779 404//779 452//779
f 406//780 452//780 397//780
f 406//781 471//781 452//781
f 411//782 404//782 451//782
f 454//783 472//783 464//783
f 472//784 469//784 464//784
f 469//785 473//785 465//785
f 473//31 406//31 465//31
f 474//786 450//786 471//786
f 473//31 413//31 406//31
f 413//787 471//787 406//787
f 475//31 467//31 411//31
f 476//788 472//788 454//788
f 474//789 454//789 450//789
f 460//790 466//790 470//790
f 475//791 470//791 467//791
f 474//792 476//792 454//792
f 477//793 460//793 470//793
f 472//794 473//794 469//794
f 475//795 477//795 470//795
f 477//796 478//796 460//796
f 479//28 480//28 471//28
f 480//797 474//797 471//797
f 413//798 479//798 471//798
f 481//31 482//31 413//31
f 473//31 481//31 413//31
f 468//799 483//799 451//799
f 484//31 485//31 411//31
f 485//31 475//31 411//31
f 483//800 479//800 451//800
f 479//801 411//801 451//801
f 486//31 484//31 411//31
f 487//31 488//31 413//31
f 488//31 411//31 413//31
f 482//31 487//31 413//31
f 411//802 479//802 413//802
f 483//549 480//549 479//549
f 488//31 486//31 411//31
f 460//803 468//803 453//803
f 472//804 481//804 473//804
f 489//805 472//805 476//805
f 490//806 489//806 476//806
f 474//807 489//807 476//807
f 477//797 491//797 478//797
f 491//31 460//31 478//31
f 489//808 481//808 472//808
f 492//809 491//809 477//809
f 475//810 492//810 477//810
f 493//811 481//811 489//811
f 494//812 483//812 468//812
f 460//813 494//813 468//813
f 495//814 494//814 460//814
f 491//31 495//31 460//31
f 474//815 496//815 489//815
f 489//816 497//816 493//816
f 497//817 481//817 493//817
f 497//818 482//818 481//818
f 485//819 492//819 475//819
f 489//820 482//820 497//820
f 485//821 491//821 492//821
f 496//822 482//822 489//822
f 485//823 484//823 491//823
f 474//824 498//824 496//824
f 494//825 495//825 483//825
f 480//826 498//826 474//826
f 499//827 483//827 495//827
f 500//828 499//828 495//828
f 501//829 500//829 495//829
f 484//830 495//830 491//830
f 501//831 495//831 484//831
f 499//832 480//832 483//832
f 499//833 498//833 480//833
f 498//834 502//834 496//834
f 502//835 482//835 496//835
f 502//836 487//836 482//836
f 499//837 500//837 498//837
f 484//838 503//838 501//838
f 486//839 503//839 484//839
f 498//840 487//840 502//840
f 486//841 501//841 503//841
f 486//842 500//842 501//842
f 498//843 488//843 487//843
f 486//844 488//844 500//844
f 504//845 488//845 498//845
f 500//846 504//846 498//846
f 488//847 504//847 500//847
